# xmcd
#
# Track frame offsets:
#	188
#	33938
#	58838
#	80438
#	90488
#	122963
#	129338
#	139388
#	162638
#	176963
#	204563
#	224588
#	241913
#	250838
#
# Disc length: 3684 seconds
#
# Revision: 2
# Processed by: cddbd v1.4PL0 Copyright (c) Steve Scherf et al.
# Submitted via: audiograbber 1.81.01
#
DISCID=d20e620e
DTITLE=J. S. Bach - Die großen Meister der Musik - J. S. Bach, CD2
DYEAR=1990
DGENRE=Classical
TTITLE0=01 - Kantate, BWV 214, "Tönet ihr Pauken! Erschallet, Trompeten!"
TTITLE1=02 - Weihnachtsoratorium, BWV 248, Sinfonia G-Dur
TTITLE2=03 - "Großer Herr, o starker König", Aria No. 8 aus dem WO, BWV 248
TTITLE3=04 - "Jesu, meine Freude", Motette, BWV 227
TTITLE4=05 - Brandenburgisches Konzert No. 4 G-Dur, BWV 1049 Allegro
TTITLE5=06 - Zweistimmige Invention No. 1 C-Dur, BWV 772
TTITLE6=07 - Hallelujah, Kantate "Lobe den Herrn meine Seele", BWV 143
TTITLE7=08 - Brandenburgisches Konzert No. 5 D-Dur, BWV 1050  Affetuoso
TTITLE8=09 - "Jesu, meines Herzens Freud", Choralsatz, BWV 361
TTITLE9=10 - Brandenburgisches Konzert No. 3 G-Dur, BWV 1048 Adagio
TTITLE10=11 - "Jauchzet Gott in allen Landen", Kantate, BWV 51
TTITLE11=12 - Overtüre No. 1 C-Dur, BWV 1066  Gavotte
TTITLE12=13 - Praeludium c-Moll, BWV 999
TTITLE13=14 - "Wir setzen uns mit Tränen nieder", Chor aus der Matthäus Passion
TTITLE13=, BWV 244
EXTD=
EXTT0=Universitätschor Leipzig\nLudwig Güttler, Trompete\nNeues Bachisches Coll
EXTT0=egium Musicum\nMax Pommer
EXTT1=Virtuosi Saxoniae\nLudwig Güttler
EXTT2=Siegfried Lorenz, Bariton\nLudwig Güttler, Trompete\nNeues Bachisches Col
EXTT2=legium Musicum\nMax Pommer
EXTT3=Rostocker Motettenchor\nInstrumentalsolisten der Capella Fidicinia Leipzi
EXTT3=g\nHans Grüss
EXTT4=Kees Boeke, Walter von Hauwe, Blockflöte\nDeutsche Bachsolisten\nHelmut W
EXTT4=inschermann
EXTT5=Ton Koopman, Cembalo
EXTT6=Thomanerchor Leipzig\nLudwig Güttler, Corno da caccia\nNeues Bachisches C
EXTT6=ollegium Musicum\nHans Joachim Rotzsch
EXTT7=Eckart Haupt, Flöte\nKarl Suske, Violine\nChristiane Jaccottet, Cembalo\n
EXTT7=Neues Bachisches Collegium Musicum\nMax Pommer
EXTT8=Rostocker Motettenchor\nInstrumentalsolisten der Capella Fidicinia Leipzi
EXTT8=g\nHans Grüss
EXTT9=Deutsche Bachsolisten\nHelmut Winschermann
EXTT10=Edita Gruberova, Sopran\nDeutsche Bachsolisten\nHelmut Winschermann
EXTT11=Neues Bachisches Collegium Musicum\nMax Pommer
EXTT12=Jürgen Rost, Gitarre
EXTT13=Chor und Orchester der Berliner Rundfunks\nDietrich Knothe
PLAYORDER=
